<svg xmlns="http://www.w3.org/2000/svg" xmlns:xlink="http://www.w3.org/1999/xlink" aria-hidden="true" role="img" width="14.4921875px" height="15.1881617px" viewBox="0 0 14.4921875 15.1881617"><g id="\u9875\u9762-1" stroke="none" stroke-width="1" fill="none" fill-rule="evenodd"><g id="\u9996\u9875\u5907\u4EFD-2" transform="translate(-381.5195, -1154.4486)"><g id="\u7F16\u7EC4-55" transform="translate(319, 48)"><g id="\u7F16\u7EC4-3" transform="translate(50, 1102)"><g id="\u9996\u9875\u5907\u4EFD-2" transform="translate(12.5195, 4.4486)"><path d="M13.048378,0.324880442 C14.1910088,0.984578679 14.6273774,2.41660692 14.0468016,3.60140177 L9.80002154,12.2679078 C9.75914291,12.3513297 9.7144579,12.4316415 9.66627851,12.5087363 C9.37581988,14.0065391 8.06786865,15.1426063 6.48996984,15.1681895 L6.4453125,15.1685523 L6.4453125,15.1881617 L2.6171875,15.1881617 C2.50136889,15.1881617 2.39070124,15.1830107 2.28518454,15.1727088 C1.62858093,15.1086021 1.14826684,14.5243513 1.21237304,13.8677477 C1.26012068,13.3786955 1.60247791,12.9687735 2.07519531,12.8346461 L2.58342734,12.6904418 C3.13640805,12.5335407 3.55255998,12.0766034 3.65722656,11.5114039 L3.79120142,10.7879396 C3.8192857,10.6362846 3.86523463,10.48849 3.92808792,10.3476445 C4.15955359,9.82896234 4.45186015,9.42485649 4.80500762,9.13532698 L9.78037794,1.14295359 C10.4707617,0.0334647782 11.9166994,-0.328494472 13.048378,0.324880442 Z M6.46413104,10.1493308 L6.3928804,10.1496061 C6.15439525,10.1552821 5.98549205,10.2077492 5.8469925,10.3046639 L5.83918511,10.3101971 C5.67019047,10.4314887 5.50586585,10.6462291 5.35495686,10.9843951 C5.34395753,11.009043 5.33554668,11.0347551 5.32985298,11.0611174 L5.32757956,11.0724541 L5.1936047,11.7959183 C5.05950946,12.5200326 4.6740037,13.1567647 4.12589933,13.6085986 L4.10494141,13.6256617 L4.8828125,13.6256617 L6.46689453,13.6058179 L6.49284244,13.6052111 C7.41228937,13.5755256 8.14904568,12.8274137 8.16383583,11.9058787 L8.1640625,11.8776148 C8.1640625,10.9325283 7.40557996,10.1645949 6.46413104,10.1493308 Z M11.1144426,1.95671945 L11.10701,1.96845557 L7.0675,8.46015388 L7.10922139,8.4721378 C7.93330525,8.71541262 8.66564205,9.17140314 9.2431137,9.77624472 L9.26798828,9.80271247 L12.6437041,2.91385286 C12.8604905,2.4714517 12.7013482,1.93765701 12.2799769,1.68559671 L12.267128,1.67804514 C11.8694071,1.44842089 11.3623464,1.57206073 11.1144426,1.95671945 Z" id="\u5F62\u72B6\u7ED3\u5408" fill="#06f"></path><polygon id="\u661F\u5F62" fill="#FF9900" points="2.90802486 8.3110303 2.1484375 9.69988044 1.38885014 8.3110303 0 7.55144294 1.38885014 6.79185558 2.1484375 5.40300544 2.90802486 6.79185558 4.296875 7.55144294"></polygon><polygon id="\u661F\u5F62\u5907\u4EFD" fill="#FF9900" points="6.69214501 3.30608795 6.1328125 4.32878669 5.57347999 3.30608795 4.55078125 2.74675544 5.57347999 2.18742293 6.1328125 1.16472419 6.69214501 2.18742293 7.71484375 2.74675544"></polygon><polygon id="\u661F\u5F62\u5907\u4EFD-2" fill="#FF9900" points="13.4694888 11.5287442 12.9101562 12.5514429 12.3508237 11.5287442 11.328125 10.9694117 12.3508237 10.4100792 12.9101562 9.38738044 13.4694888 10.4100792 14.4921875 10.9694117"></polygon></g></g></g></g></g></svg>