<svg xmlns="http://www.w3.org/2000/svg" xmlns:xlink="http://www.w3.org/1999/xlink" width="20" height="20" viewBox="0 0 18.4736842 12.4736842" style="margin-top: 1px;">
                <g id="\u9875\u9762-1" stroke="none" stroke-width="1" fill="none" fill-rule="evenodd">
                  <g id="\u5B66\u5458\u8BE6\u60C5" transform="translate(-300, -139)">
                    <g id="\u7F16\u7EC4-11\u5907\u4EFD" transform="translate(299, 138)">
                      <rect id="\u77E9\u5F62" x="0" y="0" width="20" height="14" />
                      <rect id="\u77E9\u5F62" fill="#FF9292" x="1" y="1" width="15" height="12" rx="2" />
                      <rect id="\u77E9\u5F62" fill="#FFDEDE" x="1" y="4" width="15" height="3" />
                      <circle id="\u692D\u5706\u5F62\u5907\u4EFD-2" fill="#FFDD2F" cx="14.4736842" cy="8.47368421"
                        r="5" />
                      <path id="\u5F62\u72B6\u7ED3\u5408"
                        d="M13.4393398,5.74867629 L14.5,6.80922969 L15.5606602,5.74867629 C15.7342265,5.57510994 16.0036509,5.55582479 16.1985191,5.69082084 L16.267767,5.74867629 C16.4630291,5.94393844 16.4630291,6.26052093 16.267767,6.45578308 L15.706,7.01622969 L16.5,7.01644325 C16.7761424,7.01644325 17,7.24030087 17,7.51644325 C17,7.79258562 16.7761424,8.01644325 16.5,8.01644325 L14.999,8.01622969 L14.999,9.01622969 L16.5,9.01644325 C16.7761424,9.01644325 17,9.24030087 17,9.51644325 C17,9.79258562 16.7761424,10.0164432 16.5,10.0164432 L14.999,10.0162297 L15,11.5164432 C15,11.7925856 14.7761424,12.0164432 14.5,12.0164432 C14.2238576,12.0164432 14,11.7925856 14,11.5164432 L13.999,10.0162297 L12.5,10.0164432 C12.2238576,10.0164432 12,9.79258562 12,9.51644325 C12,9.24030087 12.2238576,9.01644325 12.5,9.01644325 L13.999,9.01622969 L13.999,8.01622969 L12.5,8.01644325 C12.2238576,8.01644325 12,7.79258562 12,7.51644325 C12,7.24030087 12.2238576,7.01644325 12.5,7.01644325 L13.293,7.01622969 L12.732233,6.45578308 C12.5369709,6.26052093 12.5369709,5.94393844 12.732233,5.74867629 C12.9274952,5.55341415 13.2440777,5.55341415 13.4393398,5.74867629 Z"
                        fill="#E7B000" />
                    </g>
                  </g>
                </g>
              </svg>