<svg xmlns="http://www.w3.org/2000/svg" xmlns:xlink="http://www.w3.org/1999/xlink" width="20" height="20" viewBox="0 0 16 18">
                <g id="\u9875\u9762-2" stroke="none" stroke-width="1" fill="none" fill-rule="evenodd">
                  <g id="\u753B\u677F\u5907\u4EFD-24" transform="translate(-1395.000000, -98.000000)">
                    <g id="\u7F16\u7EC4" transform="translate(1395.000000, 98.000000)">
                      <rect id="\u77E9\u5F62" fill="#000000" fill-rule="nonzero" opacity="0" x="0" y="0" width="16"
                        height="16" />
                      <path id="\u8DEF\u5F84"
                        d="M14.5,9 L14.5,13.4615385 C14.5,14.3112073 13.6045695,15 12.5,15 L3.5,15 C2.3954305,15 1.5,14.3112073 1.5,13.4615385 L1.5,9 L14.5,9 Z"
                        fill="#FF6B6B" fill-rule="nonzero" />
                      <path id="\u692D\u5706\u5F62"
                        d="M8,3.5 C8.55228475,3.5 9,3.05228475 9,2.5 C9,1.5 7.5,1 7.5,1 C7.5,1 7,1.94771525 7,2.5 C7,3.05228475 7.44771525,3.5 8,3.5 Z"
                        fill="#FF6B6B" />
                      <path id="\u5F62\u72B6\u7ED3\u5408"
                        d="M8,4 C11,4 11,5.8954305 11,7 L12.1363636,7 C13.3850074,7 14.4075122,7.81925966 14.4940653,8.85716817 L14.5,9 C14.5,9.27614237 14.2761424,9.5 14,9.5 C13.7238576,9.5 13.5,9.27614237 13.5,9 L13.5,9.5 C13.5,10.0522847 13.0522847,10.5 12.5,10.5 C11.9477153,10.5 11.5,10.0522847 11.5,9.5 L11.5,9 C11.5,9.27614237 11.2761424,9.5 11,9.5 C10.7238576,9.5 10.5,9.27614237 10.5,9 L10.5,9.5 C10.5,10.0522847 10.0522847,10.5 9.5,10.5 C8.94771525,10.5 8.5,10.0522847 8.5,9.5 L8.5,9 C8.5,9.27614237 8.27614237,9.5 8,9.5 C7.72385763,9.5 7.5,9.27614237 7.5,9 L7.5,9.5 C7.5,10.0522847 7.05228475,10.5 6.5,10.5 C5.94771525,10.5 5.5,10.0522847 5.5,9.5 L5.5,9 C5.5,9.27614237 5.27614237,9.5 5,9.5 C4.72385763,9.5 4.5,9.27614237 4.5,9 L4.5,9.5 C4.5,10.0522847 4.05228475,10.5 3.5,10.5 C2.94771525,10.5 2.5,10.0522847 2.5,9.5 L2.5,9 C2.5,9.27614237 2.27614237,9.5 2,9.5 C1.72385763,9.5 1.5,9.27614237 1.5,9 C1.5,7.8954305 2.55823605,7 3.86363636,7 L5,7 L5.0005144,6.80904291 C5.00925926,5.69067721 5.16666667,4 8,4 Z"
                        fill="#FFC3C3" />
                    </g>
                  </g>
                </g>
              </svg>