<svg xmlns="http://www.w3.org/2000/svg" xmlns:xlink="http://www.w3.org/1999/xlink" width="64px" height="64px" viewBox="0 0 64 64" data-v-a70203ab=""><title data-v-a70203ab="">编组_4</title><g id="\u9875\u9762-1" stroke="none" stroke-width="1" fill="none" fill-rule="evenodd" data-v-a70203ab=""><g id="\u62A5\u540D-\u751F\u6210\u8BA2\u5355" transform="translate(-492.000000, -394.000000)" data-v-a70203ab=""><g id="\u7F16\u7EC4-4" transform="translate(492.000000, 394.000000)" data-v-a70203ab=""><rect id="\u77E9\u5F62" fill="#E6F0FF" fill-rule="nonzero" x="0" y="0" width="64" height="64" rx="21.3333333" data-v-a70203ab=""></rect><g id="\u7F16\u7EC4" transform="translate(14.000000, 14.000000)" data-v-a70203ab=""><ellipse id="\u692D\u5706\u5F62" fill="#0F8BF3" opacity="0.149130394" cx="18" cy="33.75" rx="18" ry="2.25" style="mix-blend-mode:multiply;" data-v-a70203ab=""></ellipse><path id="\u8DEF\u5F84" d="M2.25,31.5 C2.25,30.6944444 2.25,29.8888889 2.25,29.0833333 L2.25,6.91666667 C2.25,4.33933783 4.33933783,2.25 6.91666667,2.25 L31.4166667,2.25 C32.7053311,2.25 33.75,3.29466892 33.75,4.58333333 L33.75,27 C33.75,30.7279221 30.7279221,33.75 27,33.75 L4.5,33.75 C3.25735931,33.75 2.25,32.7426407 2.25,31.5 Z" fill="#607EF5" data-v-a70203ab=""></path><path id="\u8DEF\u5F84\u5907\u4EFD-2" d="M30.2884615,1.125 C31.5788961,1.125 32.625,2.16833643 32.625,3.45535714 L32.625,25.7869201 C32.6233831,28.8928905 30.10597,31.4110272 27.0000002,31.4135368 L8.0048076,31.4189962 C6.76241968,31.42 5.75545445,32.4272547 5.75480769,33.6696429 L5.75480769,33.75 L5.75480769,33.75 L4.5,33.75 C3.25735931,33.75 2.25,32.7426407 2.25,31.5 L2.25,4.62053571 L2.25,4.62053571 C2.25,2.69000465 3.81915585,1.125 5.75480769,1.125 L30.2884615,1.125 Z" fill="#2547CC" data-v-a70203ab=""></path><path id="\u8DEF\u5F84" d="M26.4375,1.39888101e-14 C27.6801407,1.39888101e-14 28.6875,1.00735931 28.6875,2.25 L28.6875,24.7425436 C28.6875,27.227825 26.6727814,29.2425436 24.1875,29.2425436 L5.0625,29.2425436 L5.0625,29.2425436 C3.59988876,29.2425436 2.39803946,30.3589982 2.26268507,31.7861744 C2.25428654,31.6900981 2.25,31.5918214 2.25,31.4925436 L2.25,3.375 C2.25,1.51103897 3.76103897,1.39888101e-14 5.625,1.39888101e-14 L26.4375,1.39888101e-14 Z" fill="#2F59FF" data-v-a70203ab=""></path><path id="\u8DEF\u5F84\u5907\u4EFD" d="M29.3936098,0 C30.556937,0 31.5,0.99041396 31.5,2.2121515 L31.5,24.75 C31.5,27.2352814 29.4852814,29.25 27,29.25 L6.76187542,29.25 L6.76187542,29.25 L6.75,0 L29.3936098,0 Z" fill="#5D95FF" data-v-a70203ab=""></path><path id="\u77E9\u5F62" d="M19.125,3.375 L25.875,3.375 L25.875,13.5 L23.1240377,11.6660251 C22.7461509,11.4141006 22.2538491,11.4141006 21.8759623,11.6660251 L19.125,13.5 L19.125,13.5 L19.125,3.375 Z" fill="#FFFFFF" data-v-a70203ab=""></path></g></g></g></g></svg>