  <svg xmlns="http://www.w3.org/2000/svg" xmlns:xlink="http://www.w3.org/1999/xlink" width="64px" height="64px" viewBox="0 0 64 64">
                <title>编组_7</title>
                <g id="\u9875\u9762-1" stroke="none" stroke-width="1" fill="none" fill-rule="evenodd">
                  <g id="\u62A5\u540D-\u751F\u6210\u8BA2\u5355" transform="translate(-676.000000, -394.000000)">
                    <g id="\u7F16\u7EC4-7" transform="translate(676.000000, 394.000000)">
                      <rect id="\u77E9\u5F62\u5907\u4EFD" fill="#CFEE9F" fill-rule="nonzero" opacity="0.332462754" x="0"
                        y="0" width="64" height="64" rx="21.3333333" />
                      <g id="\u7F16\u7EC4" transform="translate(14.000000, 14.000000)">
                        <ellipse id="\u692D\u5706\u5F62" fill="#63B228" opacity="0.191826615" cx="18" cy="33.75" rx="18"
                          ry="2.25" style="mix-blend-mode: multiply" />
                        <path id="\u5F62\u72B6\u7ED3\u5408"
                          d="M1.125,32.625 L1.125,2.25 C1.125,1.05913601 2.05016159,0.084355084 3.22095119,0.00519081254 L3.375,0 C4.61764069,-2.28269391e-16 5.625,1.00735931 5.625,2.25 L5.625,32.625 C5.625,33.815864 4.69983841,34.7906449 3.52904881,34.8698092 L3.375,34.875 C2.13235931,34.875 1.125,33.8676407 1.125,32.625 Z"
                          fill="#63B228" />
                        <path id="\u77E9\u5F62\u5907\u4EFD-50"
                          d="M5.625,2.25 L31.5,2.25 C33.9852814,2.25 36,4.26471863 36,6.75 L36,24.75 C36,27.2352814 33.9852814,29.25 31.5,29.25 L5.625,29.25 L5.625,29.25 L5.625,2.25 Z"
                          fill="#63B228" />
                        <path id="\u77E9\u5F62\u5907\u4EFD-51"
                          d="M5.625,2.25 L31.5,2.25 C33.9852814,2.25 36,4.26471863 36,6.75 L36,22.5 C36,24.9852814 33.9852814,27 31.5,27 L5.625,27 L5.625,27 L5.625,2.25 Z"
                          fill="#88D510" />
                        <path id="\u77E9\u5F62\u5907\u4EFD-52"
                          d="M3.375,0 C4.61764069,-2.28269391e-16 5.625,1.00735931 5.625,2.25 L5.625,32.625 C5.625,33.8676407 4.61764069,34.875 3.375,34.875 L3.375,34.875 L3.375,34.875 L3.375,0 Z"
                          fill="#88D510" opacity="0.5" />
                        <circle id="\u692D\u5706\u5F62\u5907\u4EFD-11" fill="#FFFFFF" opacity="0.5" cx="12.4060826"
                          cy="10.6875" r="2.8125" />
                        <path id="\u77E9\u5F62\u5907\u4EFD-47"
                          d="M12.375,14.625 C14.3225615,14.625 15.9846694,16.0330166 16.3048466,17.9540795 L16.6566752,20.0650511 C16.7588196,20.6779178 16.3447975,21.2575487 15.7319309,21.3596932 C15.670808,21.3698803 15.608948,21.375 15.546982,21.375 L9.20301797,21.375 C8.58169763,21.375 8.07801797,20.8713203 8.07801797,20.25 C8.07801797,20.188034 8.08313767,20.126174 8.09332481,20.0650511 L8.44515342,17.9540795 C8.76533056,16.0330166 10.4274385,14.625 12.375,14.625 Z"
                          fill="#FFFFFF" opacity="0.5" />
                        <circle id="\u692D\u5706\u5F62\u5907\u4EFD-12" fill="#FFFFFF" cx="19.1560826" cy="10.6875"
                          r="2.8125" />
                        <circle id="\u692D\u5706\u5F62\u5907\u4EFD-13" fill="#FFFFFF" opacity="0.600000024"
                          cx="25.9060826" cy="10.6875" r="2.8125" />
                        <path id="\u77E9\u5F62\u5907\u4EFD-53"
                          d="M25.875,14.625 C27.8225615,14.625 29.4846694,16.0330166 29.8048466,17.9540795 L30.1566752,20.0650511 C30.2588196,20.6779178 29.8447975,21.2575487 29.2319309,21.3596932 C29.170808,21.3698803 29.108948,21.375 29.046982,21.375 L22.703018,21.375 C22.0816976,21.375 21.578018,20.8713203 21.578018,20.25 C21.578018,20.188034 21.5831377,20.126174 21.5933248,20.0650511 L21.9451534,17.9540795 C22.2653306,16.0330166 23.9274385,14.625 25.875,14.625 Z"
                          fill="#FFFFFF" opacity="0.600000024" />
                        <path id="\u77E9\u5F62\u5907\u4EFD-48"
                          d="M19.125,14.625 C21.0725615,14.625 22.7346694,16.0330166 23.0548466,17.9540795 L23.4066752,20.0650511 C23.5088196,20.6779178 23.0947975,21.2575487 22.4819309,21.3596932 C22.420808,21.3698803 22.358948,21.375 22.296982,21.375 L15.953018,21.375 C15.3316976,21.375 14.828018,20.8713203 14.828018,20.25 C14.828018,20.188034 14.8331377,20.126174 14.8433248,20.0650511 L15.1951534,17.9540795 C15.5153306,16.0330166 17.1774385,14.625 19.125,14.625 Z"
                          fill="#FFFFFF" />
                        <path id="\u77E9\u5F62"
                          d="M5.625,27 L5.625,27 L5.625,27 L5.625,32.625 C5.625,33.8676407 4.61764069,34.875 3.375,34.875 L3.375,34.875 L3.375,34.875 L3.375,29.25 C3.375,28.0073593 4.38235931,27 5.625,27 Z"
                          fill="#469C06" opacity="0.900000036" />
                      </g>
                    </g>
                  </g>
                </g>
              </svg>