<svg xmlns="http://www.w3.org/2000/svg" xmlns:xlink="http://www.w3.org/1999/xlink" width="24px" height="24px" viewBox="0 0 24 24" style="position: absolute; bottom: 0px; right: 0px;"><g id="\u9875\u9762-2" stroke="none" stroke-width="1" fill="none" fill-rule="evenodd"><g id="\u753B\u677F\u5907\u4EFD-24" transform="translate(-1660.000000, -266.000000)"><g id="\u7F16\u7EC4" transform="translate(1660.000000, 266.000000)"><g id="\u7537" fill="#B3D1FF"><circle id="\u692D\u5706\u5F62" cx="12" cy="12" r="12"></circle></g><path d="M12,15.960943 C12.6040614,15.960943 13.09375,16.4506316 13.09375,17.054693 C13.09375,17.6587544 12.6040614,18.148443 12,18.148443 C11.3959386,18.148443 10.90625,17.6587544 10.90625,17.054693 C10.90625,16.4506316 11.3959386,15.960943 12,15.960943 Z M11.5351483,5.04080894 C13.6878123,5.03867185 15.4346522,6.78198876 15.4368481,8.93464503 C15.4385566,10.6611237 14.3043175,12.1830289 12.64935,12.6748215 L12.6495031,14.1095812 C12.6605222,14.1148519 12.6660043,14.119396 12.6651863,14.1230092 C12.6479715,14.1990494 12.6203105,14.2711909 12.5838195,14.3379469 C12.5572329,14.3965767 12.5231352,14.4527134 12.4849721,14.4831696 C12.3266325,14.6673314 12.0890707,14.7853661 11.8267737,14.7853661 C11.4171755,14.7853661 11.0730477,14.5081531 10.9910453,14.1230092 C10.9890031,14.1134175 10.9881095,14.1042658 10.9883083,14.0955392 C10.9818321,14.091897 10.9783378,14.0883542 10.9783378,14.0855525 L10.9783378,11.3885784 L10.9783378,11.3885784 C10.9783378,11.2660784 11.0785651,11.1658511 11.2010651,11.1658511 L11.5351562,11.1658511 C12.7652458,11.1658511 13.7624296,10.1686673 13.7624296,8.93857764 C13.7624296,7.70848797 12.7652458,6.71130421 11.5351561,6.71130421 C10.3080938,6.71130415 9.31279232,7.70358581 9.30790081,8.92950001 C9.22915871,9.31504585 8.88255039,9.5975896 8.47673233,9.5975896 C8.06713418,9.5975896 7.72300633,9.32037664 7.64100398,8.93523273 L7.64142698,8.93780698 L7.63742698,8.93857764 C7.63742698,6.78592196 9.38249988,5.04080894 11.5351483,5.04080894 Z" id="\u5F62\u72B6\u7ED3\u5408" fill="#FFFFFF"></path></g></g></g></svg>