<svg width="180" height="140" viewBox="0 0 180 140" fill="none" xmlns="http://www.w3.org/2000/svg">
  <rect width="180" height="140" rx="14" fill="#F7FAFF"/>
  <circle cx="44" cy="42" r="9" fill="#DDF7FF" stroke="#8CD7F4" stroke-width="2"/>
  <circle cx="132" cy="32" r="7" fill="#DDF7FF" stroke="#8CD7F4" stroke-width="2"/>
  <circle cx="144" cy="62" r="5" fill="#DDF7FF" stroke="#8CD7F4" stroke-width="2"/>
  <path d="M77 33H103V46H77V33Z" fill="#B7D6FF" stroke="#2F6BFF" stroke-width="3" stroke-linejoin="round"/>
  <path d="M73 45H107L114 108C115.2 118.5 106.9 128 96.3 128H83.7C73.1 128 64.8 118.5 66 108L73 45Z" fill="#FFFFFF" stroke="#2F6BFF" stroke-width="3"/>
  <path d="M71 82H109L112 110C113 118.2 106.6 125.5 98.3 125.5H81.7C73.4 125.5 67 118.2 68 110L71 82Z" fill="#BFEFFF"/>
  <path d="M78 64H102" stroke="#AFCBFF" stroke-width="4" stroke-linecap="round"/>
  <path d="M82 94C87.8 89.7 93.9 89.7 100 94" stroke="#39BDE5" stroke-width="4" stroke-linecap="round"/>
  <path d="M61 34H119" stroke="#D8E7FF" stroke-width="5" stroke-linecap="round"/>
  <path d="M77 27H103" stroke="#2F6BFF" stroke-width="5" stroke-linecap="round"/>
</svg>
